# xmcd
# 
# Track frame offsets:
#     150
#     14265
#     28188
#     40630
#     53930
#     67850
#     78475
#     92990
#     105653
#     119180
#     131808
#     145718
#     154075
#     167855
#     177853
#     186600
#     198250
#     206348
#     216220
# 
# Disc length: 3068
# 
# Revision: 2
# Processed by: cddbd v1.5.2PL0 Copyright (c) Steve Scherf et al.
# Submitted via: fre:ac v1.1beta1pre5
# 
DISCID=150bfa13
DTITLE=Nat 'King' Cole - Penthouse Serenade
DYEAR=1955
DGENRE=Piano Jazz
TTITLE0=A1 Penthouse Serenade  (When We're Alone)
TTITLE1=A2 Somebody Loves Me
TTITLE2=A3 Laura
TTITLE3=A4 Once In A Blue Moon  (based on Rubenstein's Melody In F)
TTITLE4=B1 Polka Dots And Moonbeams
TTITLE5=B2 Down By The Old Mill Stream
TTITLE6=B3 If I Should Lose You
TTITLE7=B4 Rose Room
TTITLE8=B5 I Surrender, Dear
TTITLE9=B6 It Could Happen To You
TTITLE10=A5 Don't Blame Me
TTITLE11=A6 Little Girl
TTITLE12=Surrender Dear (alt. take)
TTITLE13=Walkin' My Baby Back Home
TTITLE14=Too Marvelous For Words
TTITLE15=Too Young
TTITLE16=That's My Girl
TTITLE17=It's Only A Paper Moon
TTITLE18=Unforgettable
EXTD=
EXTT0=
EXTT1=
EXTT2=
EXTT3=
EXTT4=
EXTT5=
EXTT6=
EXTT7=
EXTT8=
EXTT9=
EXTT10=
EXTT11=
EXTT12=
EXTT13=
EXTT14=
EXTT15=
EXTT16=
EXTT17=
EXTT18=
PLAYORDER=
